<?xml version="1.0" standalone="no"?>
<!DOCTYPE svg PUBLIC "-//W3C//DTD SVG 20010904//EN"
 "http://www.w3.org/TR/2001/REC-SVG-20010904/DTD/svg10.dtd">
<svg version="1.0" xmlns="http://www.w3.org/2000/svg"
 width="500.000000pt" height="500.000000pt" viewBox="0 0 500.000000 500.000000"
 preserveAspectRatio="xMidYMid meet">
<metadata>
Created by potrace 1.11, written by Peter Selinger 2001-2013
</metadata>
<g transform="translate(0.000000,500.000000) scale(0.100000,-0.100000)"
fill="#000000" stroke="none">
<path d="M696 3929 c-20 -17 -40 -46 -45 -64 -12 -43 4 -107 33 -133 11 -11
185 -113 386 -227 358 -202 366 -206 412 -201 l46 5 -19 -72 c-27 -99 -100
-245 -159 -316 -58 -70 -139 -130 -318 -237 -229 -135 -341 -238 -430 -391
-129 -223 -135 -516 -16 -743 71 -135 190 -254 326 -325 88 -47 201 -85 250
-85 46 0 104 22 136 53 70 65 82 180 26 258 -34 48 -50 58 -164 100 -72 27
-95 42 -146 93 -89 90 -109 138 -109 261 0 88 3 107 27 158 45 95 137 178 325
290 199 120 259 164 357 267 190 199 293 450 341 827 16 129 16 132 -4 178
-26 59 -51 70 -301 130 -107 25 -338 82 -512 126 -175 43 -338 79 -362 79 -36
0 -52 -6 -80 -31z"/>
<path d="M3975 3909 c-104 -26 -332 -83 -505 -125 -173 -42 -334 -84 -358 -95
-34 -14 -47 -27 -63 -64 -20 -46 -20 -49 -4 -178 48 -377 151 -628 341 -827
98 -103 158 -147 357 -267 188 -112 280 -195 325 -290 24 -51 27 -70 27 -158
0 -123 -20 -171 -109 -261 -51 -51 -74 -66 -146 -93 -114 -42 -130 -52 -164
-100 -56 -78 -44 -193 26 -258 32 -31 90 -53 136 -53 49 0 162 38 250 85 136
71 255 190 326 325 119 227 113 520 -16 743 -89 153 -201 256 -430 391 -179
107 -260 167 -318 237 -59 71 -132 217 -159 316 l-19 72 46 -5 c46 -5 54 -1
412 201 201 114 375 216 386 227 29 26 45 90 33 133 -5 18 -25 47 -45 64 -48
43 -96 40 -329 -20z"/>
<path d="M2080 2501 c-36 -3 -79 -14 -95 -24 -42 -25 -76 -77 -82 -125 -10
-76 8 -103 208 -309 l189 -194 0 -159 0 -158 -82 -7 c-238 -19 -364 -52 -422
-109 -101 -102 -92 -255 21 -327 59 -37 142 -40 204 -9 64 33 184 44 479 44
295 0 415 -11 479 -44 59 -29 142 -27 197 5 118 69 131 227 28 331 -58 57
-184 90 -421 109 l-83 7 0 153 0 153 183 197 c184 198 216 243 217 303 0 66
-50 138 -113 161 -30 12 -786 13 -907 2z"/>
</g>
</svg>
