<?xml version="1.0" encoding="UTF-8" standalone="no"?><!DOCTYPE svg PUBLIC "-//W3C//DTD SVG 1.1//EN" "http://www.w3.org/Graphics/SVG/1.1/DTD/svg11.dtd"><svg width="100%" height="100%" viewBox="0 0 55 55" version="1.1" xmlns="http://www.w3.org/2000/svg" xmlns:xlink="http://www.w3.org/1999/xlink" xml:space="preserve" xmlns:serif="http://www.serif.com/" style="fill-rule:evenodd;clip-rule:evenodd;stroke-linecap:round;stroke-linejoin:round;stroke-miterlimit:1.41421;"><g><g><path d="M27.589,35.985l-5.79,-5.927l11.402,-0.11l-5.612,6.037Z" style="fill:#5a3200;stroke:#5a3200;stroke-width:4.7px;"/><path d="M19.787,44.436c0,-0.555 3.456,-1.006 7.713,-1.006c4.257,0 7.713,0.451 7.713,1.006c0,-0.555 -3.456,-1.006 -7.713,-1.006c-4.257,0 -7.713,0.451 -7.713,1.006Z" style="fill:#5a3200;fill-rule:nonzero;stroke:#5a3200;stroke-width:5.37px;"/><path d="M27.5,32.296l0,8.719" style="fill:#5a3200;fill-rule:nonzero;stroke:#5a3200;stroke-width:5.37px;"/></g><g><path d="M17.64,14.081c-1.503,13.887 -9.092,11.585 -13.042,17.352c-1.904,2.781 -1.141,6.241 -0.817,7.003c1.792,4.216 5.207,4.632 5.791,4.927" style="fill:none;stroke:#5a3200;stroke-width:5.37px;"/><path d="M13.678,15.192l-9.235,-5.229l14.085,3.486l-4.85,1.743Z" style="fill:#5a3200;stroke:#5a3200;stroke-width:3.69px;"/></g><g><path d="M37.36,14.081c1.503,13.887 9.092,11.585 13.042,17.352c1.904,2.781 1.141,6.241 0.817,7.003c-1.792,4.216 -5.207,4.632 -5.791,4.927" style="fill:none;stroke:#5a3200;stroke-width:5.37px;"/><path d="M41.322,15.192l9.235,-5.229l-14.085,3.486l4.85,1.743Z" style="fill:#5a3200;stroke:#5a3200;stroke-width:3.69px;"/></g></g></svg>